# xmcd
#
# Track frame offsets:
#  150
#  15218
#  28404
#  41878
#  55406
#  70607
#  82485
#  95399
#  107652
#  120029
#  134926
#
# Disc length: 1987 seconds
#
# Revision: 0
# Processed by: cddbd v1.5.1PL2 Copyright (c) Steve Scherf et al.
# Submitted via: Collectorz.com_Music_Collector 6.9
#
DISCID=9607c10b
DTITLE=Cornelius Brothers and Sister Rose - Cornelius Brothers and Sister Rose
DYEAR=2005
DGENRE=Soul
TTITLE0=too late to turn back now
TTITLE1=i'm so glad (to be loved by you)
TTITLE2=let me down easy
TTITLE3=don' ever be loney (a poor little fool like me)
TTITLE4=gonna be sweet for you
TTITLE5=i'm never gonna be alone anymore
TTITLE6=good loving don.t come easy
TTITLE7=treat her like a lady
TTITLE8=just ain't no love (like a lady's)
TTITLE9=lift your love higher
TTITLE10=let's stay together
EXTD=
EXTT0=
EXTT1=
EXTT2=
EXTT3=
EXTT4=
EXTT5=
EXTT6=
EXTT7=
EXTT8=
EXTT9=
EXTT10=
PLAYORDER=
